<mxfile host="app.diagrams.net" modified="2023-08-09T11:06:50.592Z" agent="Mozilla/5.0 (X11; Ubuntu; Linux x86_64; rv:109.0) Gecko/20100101 Firefox/115.0" etag="tOwEFYaYNGRbLvI2vlmw" version="21.3.8" type="github">
  <diagram name="Page-1" id="AzDczmAqX4okxUA2TkHL">
    <mxGraphModel dx="1085" dy="627" grid="1" gridSize="10" guides="1" tooltips="1" connect="1" arrows="1" fold="1" page="1" pageScale="1" pageWidth="827" pageHeight="1169" math="0" shadow="0">
      <root>
        <mxCell id="0" />
        <mxCell id="1" parent="0" />
        <mxCell id="uDz7kz3F3EmUV_V6Jt2j-1" value="métadonnée mère&lt;br&gt;Description générale du projet" style="rounded=1;whiteSpace=wrap;html=1;" vertex="1" parent="1">
          <mxGeometry x="355" y="70" width="120" height="60" as="geometry" />
        </mxCell>
        <mxCell id="uDz7kz3F3EmUV_V6Jt2j-2" value="&lt;div&gt;Zonages Aléas&lt;/div&gt;&lt;div&gt;Type : shp&lt;br&gt;&lt;/div&gt;volume : 376 Ko" style="rounded=1;whiteSpace=wrap;html=1;" vertex="1" parent="1">
          <mxGeometry x="180" y="189" width="120" height="60" as="geometry" />
        </mxCell>
        <mxCell id="uDz7kz3F3EmUV_V6Jt2j-3" value="&lt;div&gt;Base de données&lt;/div&gt;&lt;div&gt;Type : shp &amp;amp; raster&lt;br&gt;&lt;/div&gt;volume : 9.8 Go" style="rounded=1;whiteSpace=wrap;html=1;" vertex="1" parent="1">
          <mxGeometry x="353" y="190" width="120" height="60" as="geometry" />
        </mxCell>
        <mxCell id="uDz7kz3F3EmUV_V6Jt2j-4" value="&lt;div&gt;Orthophotographies&lt;/div&gt;&lt;div&gt;IGN 1960&lt;/div&gt;&lt;div&gt;Type : raster&lt;br&gt;volume: 1.1&amp;nbsp; Go&lt;br&gt;&lt;/div&gt;" style="rounded=1;whiteSpace=wrap;html=1;dashed=1;" vertex="1" parent="1">
          <mxGeometry x="570" y="190" width="120" height="60" as="geometry" />
        </mxCell>
        <mxCell id="uDz7kz3F3EmUV_V6Jt2j-15" style="edgeStyle=orthogonalEdgeStyle;rounded=0;orthogonalLoop=1;jettySize=auto;html=1;exitX=0.5;exitY=0;exitDx=0;exitDy=0;entryX=0;entryY=0.5;entryDx=0;entryDy=0;" edge="1" parent="1" source="uDz7kz3F3EmUV_V6Jt2j-6" target="uDz7kz3F3EmUV_V6Jt2j-1">
          <mxGeometry relative="1" as="geometry" />
        </mxCell>
        <mxCell id="uDz7kz3F3EmUV_V6Jt2j-6" value="DOI" style="text;html=1;strokeColor=none;fillColor=none;align=center;verticalAlign=middle;whiteSpace=wrap;rounded=0;" vertex="1" parent="1">
          <mxGeometry x="210" y="160" width="60" height="30" as="geometry" />
        </mxCell>
        <mxCell id="uDz7kz3F3EmUV_V6Jt2j-16" style="edgeStyle=orthogonalEdgeStyle;rounded=0;orthogonalLoop=1;jettySize=auto;html=1;exitX=0.5;exitY=0;exitDx=0;exitDy=0;entryX=0.5;entryY=1;entryDx=0;entryDy=0;" edge="1" parent="1" source="uDz7kz3F3EmUV_V6Jt2j-7" target="uDz7kz3F3EmUV_V6Jt2j-1">
          <mxGeometry relative="1" as="geometry" />
        </mxCell>
        <mxCell id="uDz7kz3F3EmUV_V6Jt2j-7" value="DOI" style="text;html=1;strokeColor=none;fillColor=none;align=center;verticalAlign=middle;whiteSpace=wrap;rounded=0;" vertex="1" parent="1">
          <mxGeometry x="383" y="160" width="60" height="30" as="geometry" />
        </mxCell>
        <mxCell id="uDz7kz3F3EmUV_V6Jt2j-17" style="edgeStyle=orthogonalEdgeStyle;rounded=0;orthogonalLoop=1;jettySize=auto;html=1;entryX=1;entryY=0.5;entryDx=0;entryDy=0;" edge="1" parent="1" source="uDz7kz3F3EmUV_V6Jt2j-8" target="uDz7kz3F3EmUV_V6Jt2j-1">
          <mxGeometry relative="1" as="geometry">
            <Array as="points">
              <mxPoint x="630" y="100" />
            </Array>
          </mxGeometry>
        </mxCell>
        <mxCell id="uDz7kz3F3EmUV_V6Jt2j-8" value="DOI ?" style="text;html=1;strokeColor=none;fillColor=none;align=center;verticalAlign=middle;whiteSpace=wrap;rounded=0;" vertex="1" parent="1">
          <mxGeometry x="600" y="160" width="60" height="30" as="geometry" />
        </mxCell>
        <mxCell id="uDz7kz3F3EmUV_V6Jt2j-10" value="&lt;div align=&quot;left&quot;&gt;&lt;ul&gt;&lt;li&gt;Anjouan&lt;/li&gt;&lt;li&gt;Mohelie&lt;/li&gt;&lt;li&gt;Grande Comore&lt;br&gt;&lt;/li&gt;&lt;/ul&gt;&lt;/div&gt;" style="text;html=1;strokeColor=none;fillColor=none;align=left;verticalAlign=middle;whiteSpace=wrap;rounded=0;" vertex="1" parent="1">
          <mxGeometry x="180" y="250" width="120" height="70" as="geometry" />
        </mxCell>
        <mxCell id="uDz7kz3F3EmUV_V6Jt2j-12" value="&lt;div align=&quot;left&quot;&gt;&lt;ul&gt;&lt;li&gt;Anjouan&lt;/li&gt;&lt;li&gt;Mohelie&lt;/li&gt;&lt;li&gt;Grande Comore&lt;br&gt;&lt;/li&gt;&lt;/ul&gt;&lt;/div&gt;" style="text;html=1;strokeColor=none;fillColor=none;align=left;verticalAlign=middle;whiteSpace=wrap;rounded=0;" vertex="1" parent="1">
          <mxGeometry x="570" y="264" width="120" height="70" as="geometry" />
        </mxCell>
        <mxCell id="uDz7kz3F3EmUV_V6Jt2j-14" value="DOI" style="text;html=1;strokeColor=none;fillColor=none;align=center;verticalAlign=middle;whiteSpace=wrap;rounded=0;" vertex="1" parent="1">
          <mxGeometry x="385" y="40" width="60" height="30" as="geometry" />
        </mxCell>
        <mxCell id="uDz7kz3F3EmUV_V6Jt2j-19" value="&lt;div align=&quot;left&quot;&gt;AMCC&lt;/div&gt;&lt;div align=&quot;left&quot;&gt;&lt;div align=&quot;left&quot;&gt;&lt;ul&gt;&lt;li&gt;Anjouan&lt;/li&gt;&lt;li&gt;Mohelie&lt;/li&gt;&lt;li&gt;Grande Comore&lt;br&gt;&lt;/li&gt;&lt;/ul&gt;&lt;/div&gt;&lt;/div&gt;&lt;div align=&quot;left&quot;&gt;ANALYSE&lt;/div&gt;&lt;div align=&quot;left&quot;&gt;&lt;div align=&quot;left&quot;&gt;&lt;ul&gt;&lt;li&gt;Anjouan&lt;/li&gt;&lt;li&gt;Mohelie&lt;/li&gt;&lt;li&gt;Grande Comore&lt;br&gt;&lt;/li&gt;&lt;/ul&gt;&lt;/div&gt;&lt;/div&gt;&lt;div align=&quot;left&quot;&gt;ATLAS&lt;/div&gt;&lt;div align=&quot;left&quot;&gt;&lt;div align=&quot;left&quot;&gt;&lt;br&gt;&lt;ul&gt;&lt;li&gt;Grande Comore&lt;br&gt;&lt;/li&gt;&lt;/ul&gt;&lt;/div&gt;&lt;/div&gt;" style="text;html=1;align=center;verticalAlign=middle;resizable=0;points=[];autosize=1;strokeColor=none;fillColor=none;" vertex="1" parent="1">
          <mxGeometry x="360" y="264" width="150" height="250" as="geometry" />
        </mxCell>
      </root>
    </mxGraphModel>
  </diagram>
</mxfile>
